<?xml version="1.0" encoding="UTF-8" standalone="no"?>
<!DOCTYPE svg PUBLIC "-//W3C//DTD SVG 1.1//EN"
 "http://www.w3.org/Graphics/SVG/1.1/DTD/svg11.dtd">
<!-- Generated by graphviz version 2.26.3 (20100126.1600)
 -->
<!-- Title: G Pages: 1 -->
<svg width="576pt" height="476pt"
 viewBox="0.00 0.00 576.00 476.00" xmlns="http://www.w3.org/2000/svg" xmlns:xlink="http://www.w3.org/1999/xlink">
<g id="graph1" class="graph" transform="scale(1 1) rotate(0) translate(4 472)">
<title>G</title>
<polygon fill="white" stroke="white" points="-4,5 -4,-472 573,-472 573,5 -4,5"/>
<g id="graph2" class="cluster"><title>cluster_Curlup</title>
<polyline fill="none" stroke="gray" points="280,-8 548,-8 "/>
<path fill="none" stroke="gray" d="M548,-8C554,-8 560,-14 560,-20"/>
<polyline fill="none" stroke="gray" points="560,-20 560,-448 "/>
<path fill="none" stroke="gray" d="M560,-448C560,-454 554,-460 548,-460"/>
<polyline fill="none" stroke="gray" points="548,-460 280,-460 "/>
<path fill="none" stroke="gray" d="M280,-460C274,-460 268,-454 268,-448"/>
<polyline fill="none" stroke="gray" points="268,-448 268,-20 "/>
<path fill="none" stroke="gray" d="M268,-20C268,-14 274,-8 280,-8"/>
<text text-anchor="middle" x="414" y="-446.1" font-family="Times Roman,serif" font-size="11.00" fill="gray">Curlup</text>
</g>
<!-- \\Curlup\\Exception -->
<g id="node2" class="node"><title>\\Curlup\\Exception</title>
<a xlink:href="db_Curlup_Exception.html" xlink:title="Exception" target="_parent">
<polygon fill="none" stroke="black" points="353,-376 277,-376 277,-340 353,-340 353,-376"/>
<text text-anchor="middle" x="315" y="-355.1" font-family="Courier,monospace" font-size="11.00">Exception</text>
</a>
</g>
<!-- \\RuntimeException -->
<g id="node13" class="node"><title>\\RuntimeException</title>
<ellipse fill="none" stroke="black" cx="102" cy="-358" rx="100.953" ry="18"/>
<text text-anchor="middle" x="102" y="-353.9" font-family="Times Roman,serif" font-size="14.00" fill="gray">\RuntimeException</text>
</g>
<!-- \\Curlup\\Exception&#45;&gt;\\RuntimeException -->
<g id="edge3" class="edge"><title>\\Curlup\\Exception&#45;&gt;\\RuntimeException</title>
<path fill="none" stroke="black" d="M276.427,-358C258.57,-358 236.339,-358 213.791,-358"/>
<polygon fill="none" stroke="black" points="213.774,-354.5 203.774,-358 213.774,-361.5 213.774,-354.5"/>
</g>
<!-- \\Curlup\\CurlException -->
<g id="node3" class="node"><title>\\Curlup\\CurlException</title>
<a xlink:href="db_Curlup_CurlException.html" xlink:title="CurlException" target="_parent">
<polygon fill="none" stroke="black" points="541,-430 437,-430 437,-394 541,-394 541,-430"/>
<text text-anchor="middle" x="489" y="-409.1" font-family="Courier,monospace" font-size="11.00">CurlException</text>
</a>
</g>
<!-- \\Curlup\\CurlException&#45;&gt;\\Curlup\\Exception -->
<g id="edge5" class="edge"><title>\\Curlup\\CurlException&#45;&gt;\\Curlup\\Exception</title>
<path fill="none" stroke="black" d="M436.794,-395.798C413.512,-388.573 386.25,-380.112 363.427,-373.029"/>
<polygon fill="none" stroke="black" points="364.203,-369.605 353.615,-369.984 362.128,-376.291 364.203,-369.605"/>
</g>
<!-- \\Curlup\\CouchDb -->
<g id="node4" class="node"><title>\\Curlup\\CouchDb</title>
<a xlink:href="db_Curlup_CouchDb.html" xlink:title="CouchDb" target="_parent">
<polygon fill="none" stroke="black" points="521,-376 457,-376 457,-340 521,-340 521,-376"/>
<text text-anchor="middle" x="489" y="-355.1" font-family="Courier,monospace" font-size="11.00">CouchDb</text>
</a>
</g>
<!-- \\Curlup\\Message -->
<g id="node5" class="node"><title>\\Curlup\\Message</title>
<a xlink:href="db_Curlup_Message.html" xlink:title="Message" target="_parent">
<polygon fill="none" stroke="black" points="347,-133 283,-133 283,-97 347,-97 347,-133"/>
<text text-anchor="middle" x="315" y="-112.1" font-family="Courier,monospace" font-size="11.00">Message</text>
</a>
</g>
<!-- \\Curlup\\Response -->
<g id="node6" class="node"><title>\\Curlup\\Response</title>
<a xlink:href="db_Curlup_Response.html" xlink:title="Response" target="_parent">
<polygon fill="none" stroke="black" points="524,-106 454,-106 454,-70 524,-70 524,-106"/>
<text text-anchor="middle" x="489" y="-85.1" font-family="Courier,monospace" font-size="11.00">Response</text>
</a>
</g>
<!-- \\Curlup\\Response&#45;&gt;\\Curlup\\Message -->
<g id="edge7" class="edge"><title>\\Curlup\\Response&#45;&gt;\\Curlup\\Message</title>
<path fill="none" stroke="black" d="M453.369,-93.529C425.442,-97.8625 386.513,-103.903 357.058,-108.474"/>
<polygon fill="none" stroke="black" points="356.413,-105.032 347.068,-110.024 357.486,-111.949 356.413,-105.032"/>
</g>
<!-- \\Curlup\\Lucene -->
<g id="node7" class="node"><title>\\Curlup\\Lucene</title>
<a xlink:href="db_Curlup_Lucene.html" xlink:title="Lucene" target="_parent">
<polygon fill="none" stroke="black" points="517,-268 461,-268 461,-232 517,-232 517,-268"/>
<text text-anchor="middle" x="489" y="-247.1" font-family="Courier,monospace" font-size="11.00">Lucene</text>
</a>
</g>
<!-- \\Curlup\\RequestPool -->
<g id="node8" class="node"><title>\\Curlup\\RequestPool</title>
<a xlink:href="db_Curlup_RequestPool.html" xlink:title="RequestPool" target="_parent">
<polygon fill="none" stroke="black" points="534,-214 444,-214 444,-178 534,-178 534,-214"/>
<text text-anchor="middle" x="489" y="-193.1" font-family="Courier,monospace" font-size="11.00">RequestPool</text>
</a>
</g>
<!-- \\Curlup\\Request -->
<g id="node9" class="node"><title>\\Curlup\\Request</title>
<a xlink:href="db_Curlup_Request.html" xlink:title="Request" target="_parent">
<polygon fill="none" stroke="black" points="521,-160 457,-160 457,-124 521,-124 521,-160"/>
<text text-anchor="middle" x="489" y="-139.1" font-family="Courier,monospace" font-size="11.00">Request</text>
</a>
</g>
<!-- \\Curlup\\Request&#45;&gt;\\Curlup\\Message -->
<g id="edge9" class="edge"><title>\\Curlup\\Request&#45;&gt;\\Curlup\\Message</title>
<path fill="none" stroke="black" d="M456.68,-136.985C428.601,-132.628 387.743,-126.288 357.11,-121.534"/>
<polygon fill="none" stroke="black" points="357.566,-118.063 347.147,-119.988 356.492,-124.98 357.566,-118.063"/>
</g>
<!-- \\Curlup\\CouchDbException -->
<g id="node10" class="node"><title>\\Curlup\\CouchDbException</title>
<a xlink:href="db_Curlup_CouchDbException.html" xlink:title="CouchDbException" target="_parent">
<polygon fill="none" stroke="black" points="551,-322 427,-322 427,-286 551,-286 551,-322"/>
<text text-anchor="middle" x="489" y="-301.1" font-family="Courier,monospace" font-size="11.00">CouchDbException</text>
</a>
</g>
<!-- \\Curlup\\CouchDbException&#45;&gt;\\Curlup\\Exception -->
<g id="edge11" class="edge"><title>\\Curlup\\CouchDbException&#45;&gt;\\Curlup\\Exception</title>
<path fill="none" stroke="black" d="M430.576,-322.131C408.672,-328.929 384.049,-336.571 363.177,-343.049"/>
<polygon fill="none" stroke="black" points="362.081,-339.724 353.568,-346.031 364.156,-346.409 362.081,-339.724"/>
</g>
<!-- \\Curlup\\Database -->
<g id="node11" class="node"><title>\\Curlup\\Database</title>
<a xlink:href="db_Curlup_Database.html" xlink:title="Database" target="_parent">
<polygon fill="none" stroke="black" points="524,-52 454,-52 454,-16 524,-16 524,-52"/>
<text text-anchor="middle" x="489" y="-31.1" font-family="Courier,monospace" font-size="11.00">Database</text>
</a>
</g>
</g>
</svg>
