<?xml version="1.0" encoding="UTF-8" standalone="no"?>
<!DOCTYPE svg PUBLIC "-//W3C//DTD SVG 1.1//EN"
 "http://www.w3.org/Graphics/SVG/1.1/DTD/svg11.dtd">
<!-- Generated by graphviz version 2.26.3 (20100126.1600)
 -->
<!-- Title: G Pages: 1 -->
<svg width="576pt" height="476pt"
 viewBox="0.00 0.00 576.00 476.00" xmlns="http://www.w3.org/2000/svg" xmlns:xlink="http://www.w3.org/1999/xlink">
<g id="graph1" class="graph" transform="scale(1 1) rotate(0) translate(4 472)">
<title>G</title>
<polygon fill="white" stroke="white" points="-4,5 -4,-472 573,-472 573,5 -4,5"/>
<g id="graph2" class="cluster"><title>cluster_Curlup</title>
<polyline fill="none" stroke="gray" points="280,-8 548,-8 "/>
<path fill="none" stroke="gray" d="M548,-8C554,-8 560,-14 560,-20"/>
<polyline fill="none" stroke="gray" points="560,-20 560,-448 "/>
<path fill="none" stroke="gray" d="M560,-448C560,-454 554,-460 548,-460"/>
<polyline fill="none" stroke="gray" points="548,-460 280,-460 "/>
<path fill="none" stroke="gray" d="M280,-460C274,-460 268,-454 268,-448"/>
<polyline fill="none" stroke="gray" points="268,-448 268,-20 "/>
<path fill="none" stroke="gray" d="M268,-20C268,-14 274,-8 280,-8"/>
<text text-anchor="middle" x="414" y="-446.1" font-family="Times Roman,serif" font-size="11.00" fill="gray">Curlup</text>
</g>
<!-- \\Curlup\\Database -->
<g id="node2" class="node"><title>\\Curlup\\Database</title>
<a xlink:href="Database.html" xlink:title="Database" target="_parent">
<polygon fill="none" stroke="black" points="524,-430 454,-430 454,-394 524,-394 524,-430"/>
<text text-anchor="middle" x="489" y="-409.1" font-family="Courier,monospace" font-size="11.00">Database</text>
</a>
</g>
<!-- \\Curlup\\Exception -->
<g id="node3" class="node"><title>\\Curlup\\Exception</title>
<a xlink:href="Exception.html" xlink:title="Exception" target="_parent">
<polygon fill="none" stroke="black" points="353,-349 277,-349 277,-313 353,-313 353,-349"/>
<text text-anchor="middle" x="315" y="-328.1" font-family="Courier,monospace" font-size="11.00">Exception</text>
</a>
</g>
<!-- \\RuntimeException -->
<g id="node13" class="node"><title>\\RuntimeException</title>
<ellipse fill="none" stroke="black" cx="102" cy="-331" rx="100.953" ry="18"/>
<text text-anchor="middle" x="102" y="-326.9" font-family="Times Roman,serif" font-size="14.00" fill="gray">\RuntimeException</text>
</g>
<!-- \\Curlup\\Exception&#45;&gt;\\RuntimeException -->
<g id="edge3" class="edge"><title>\\Curlup\\Exception&#45;&gt;\\RuntimeException</title>
<path fill="none" stroke="black" d="M276.427,-331C258.57,-331 236.339,-331 213.791,-331"/>
<polygon fill="none" stroke="black" points="213.774,-327.5 203.774,-331 213.774,-334.5 213.774,-327.5"/>
</g>
<!-- \\Curlup\\Request -->
<g id="node4" class="node"><title>\\Curlup\\Request</title>
<a xlink:href="Request.html" xlink:title="Request" target="_parent">
<polygon fill="none" stroke="black" points="521,-52 457,-52 457,-16 521,-16 521,-52"/>
<text text-anchor="middle" x="489" y="-31.1" font-family="Courier,monospace" font-size="11.00">Request</text>
</a>
</g>
<!-- \\Curlup\\Message -->
<g id="node11" class="node"><title>\\Curlup\\Message</title>
<a xlink:href="Message.html" xlink:title="Message" target="_parent">
<polygon fill="none" stroke="black" points="347,-133 283,-133 283,-97 347,-97 347,-133"/>
<text text-anchor="middle" x="315" y="-112.1" font-family="Courier,monospace" font-size="11.00">Message</text>
</a>
</g>
<!-- \\Curlup\\Request&#45;&gt;\\Curlup\\Message -->
<g id="edge5" class="edge"><title>\\Curlup\\Request&#45;&gt;\\Curlup\\Message</title>
<path fill="none" stroke="black" d="M456.82,-47.4405C446.893,-51.6805 435.956,-56.4478 426,-61 402.845,-71.5866 377.276,-83.9772 356.519,-94.2173"/>
<polygon fill="none" stroke="black" points="354.757,-91.1841 347.348,-98.7567 357.862,-97.4578 354.757,-91.1841"/>
</g>
<!-- \\Curlup\\CurlException -->
<g id="node5" class="node"><title>\\Curlup\\CurlException</title>
<a xlink:href="CurlException.html" xlink:title="CurlException" target="_parent">
<polygon fill="none" stroke="black" points="541,-376 437,-376 437,-340 541,-340 541,-376"/>
<text text-anchor="middle" x="489" y="-355.1" font-family="Courier,monospace" font-size="11.00">CurlException</text>
</a>
</g>
<!-- \\Curlup\\CurlException&#45;&gt;\\Curlup\\Exception -->
<g id="edge7" class="edge"><title>\\Curlup\\CurlException&#45;&gt;\\Curlup\\Exception</title>
<path fill="none" stroke="black" d="M436.794,-349.899C413.616,-346.303 386.494,-342.094 363.735,-338.562"/>
<polygon fill="none" stroke="black" points="364.033,-335.067 353.615,-336.992 362.96,-341.984 364.033,-335.067"/>
</g>
<!-- \\Curlup\\RequestPool -->
<g id="node6" class="node"><title>\\Curlup\\RequestPool</title>
<a xlink:href="RequestPool.html" xlink:title="RequestPool" target="_parent">
<polygon fill="none" stroke="black" points="534,-268 444,-268 444,-232 534,-232 534,-268"/>
<text text-anchor="middle" x="489" y="-247.1" font-family="Courier,monospace" font-size="11.00">RequestPool</text>
</a>
</g>
<!-- \\Curlup\\CouchDbException -->
<g id="node7" class="node"><title>\\Curlup\\CouchDbException</title>
<a xlink:href="CouchDbException.html" xlink:title="CouchDbException" target="_parent">
<polygon fill="none" stroke="black" points="551,-322 427,-322 427,-286 551,-286 551,-322"/>
<text text-anchor="middle" x="489" y="-301.1" font-family="Courier,monospace" font-size="11.00">CouchDbException</text>
</a>
</g>
<!-- \\Curlup\\CouchDbException&#45;&gt;\\Curlup\\Exception -->
<g id="edge9" class="edge"><title>\\Curlup\\CouchDbException&#45;&gt;\\Curlup\\Exception</title>
<path fill="none" stroke="black" d="M426.182,-313.748C405.636,-316.936 383.135,-320.427 363.783,-323.43"/>
<polygon fill="none" stroke="black" points="363.029,-320.005 353.684,-324.997 364.102,-326.923 363.029,-320.005"/>
</g>
<!-- \\Curlup\\CouchDb -->
<g id="node8" class="node"><title>\\Curlup\\CouchDb</title>
<a xlink:href="CouchDb.html" xlink:title="CouchDb" target="_parent">
<polygon fill="none" stroke="black" points="521,-160 457,-160 457,-124 521,-124 521,-160"/>
<text text-anchor="middle" x="489" y="-139.1" font-family="Courier,monospace" font-size="11.00">CouchDb</text>
</a>
</g>
<!-- \\Curlup\\Lucene -->
<g id="node9" class="node"><title>\\Curlup\\Lucene</title>
<a xlink:href="Lucene.html" xlink:title="Lucene" target="_parent">
<polygon fill="none" stroke="black" points="517,-106 461,-106 461,-70 517,-70 517,-106"/>
<text text-anchor="middle" x="489" y="-85.1" font-family="Courier,monospace" font-size="11.00">Lucene</text>
</a>
</g>
<!-- \\Curlup\\Response -->
<g id="node10" class="node"><title>\\Curlup\\Response</title>
<a xlink:href="Response.html" xlink:title="Response" target="_parent">
<polygon fill="none" stroke="black" points="524,-214 454,-214 454,-178 524,-178 524,-214"/>
<text text-anchor="middle" x="489" y="-193.1" font-family="Courier,monospace" font-size="11.00">Response</text>
</a>
</g>
<!-- \\Curlup\\Response&#45;&gt;\\Curlup\\Message -->
<g id="edge11" class="edge"><title>\\Curlup\\Response&#45;&gt;\\Curlup\\Message</title>
<path fill="none" stroke="black" d="M453.219,-181.017C444.292,-177.183 434.766,-173.008 426,-169 402.845,-158.413 377.276,-146.023 356.519,-135.783"/>
<polygon fill="none" stroke="black" points="357.862,-132.542 347.348,-131.243 354.757,-138.816 357.862,-132.542"/>
</g>
</g>
</svg>
