<?xml version="1.0" encoding="UTF-8" standalone="no"?>
<!DOCTYPE svg PUBLIC "-//W3C//DTD SVG 1.1//EN" "http://www.w3.org/Graphics/SVG/1.1/DTD/svg11.dtd">
<!-- Generated by graphviz version 2.26.3 (20100126.1600)
 -->
<!-- Title: Classes Pages: 1 -->
<svg xmlns="http://www.w3.org/2000/svg" xmlns:xlink="http://www.w3.org/1999/xlink" width="852pt" height="768pt">
<g id="viewport" class="graph" transform="scale(1 1) rotate(0) translate(4 763.6)">
<title>Classes</title>
<polygon fill="white" stroke="white" points="-4,5 -4,-763.6 849,-763.6 849,5 -4,5"/>
<!-- 09a15e9660c1ebc6f429d818825ce0c6 -->
<g id="node1" class="node"><title>09a15e9660c1ebc6f429d818825ce0c6</title>
<polygon fill="white" stroke="black" points="73,-511.98 1,-511.98 1,-475.98 73,-475.98 73,-511.98"/>
<text text-anchor="middle" x="37" y="-490.38" font-family="Times Roman,serif" font-size="14.00" fill="gray">stdClass</text>
</g>
<!-- f82b5f18aae69ce378ac795bde3837cc -->
<g id="node2" class="node"><title>f82b5f18aae69ce378ac795bde3837cc</title>
<a xlink:href="_CouchDb.html" xlink:title="CouchDb" target="_top">
<polygon fill="white" stroke="black" points="238,-739.98 160,-739.98 160,-703.98 238,-703.98 238,-739.98"/>
<text text-anchor="middle" x="199" y="-718.38" font-family="Times Roman,serif" font-size="14.00">CouchDb</text>
</a>
</g>
<!-- f82b5f18aae69ce378ac795bde3837cc&#45;&gt;09a15e9660c1ebc6f429d818825ce0c6 -->
<g id="edge2" class="edge"><title>f82b5f18aae69ce378ac795bde3837cc-&gt;09a15e9660c1ebc6f429d818825ce0c6</title>
<path fill="none" stroke="black" d="M186.307,-703.744C174.905,-686.651 158.403,-660.044 148,-634.98 123.163,-575.141 173.131,-475.616 111,-493.98"/>
</g>
<!-- ed0446436698678e06bafee91a67c88b -->
<g id="node3" class="node"><title>ed0446436698678e06bafee91a67c88b</title>
<a xlink:href="_Message.html" xlink:title="Message" target="_top">
<polygon fill="white" stroke="black" points="236,-625.98 162,-625.98 162,-589.98 236,-589.98 236,-625.98"/>
<text text-anchor="middle" x="199" y="-604.38" font-family="Times Roman,serif" font-size="14.00">Message</text>
</a>
</g>
<!-- ed0446436698678e06bafee91a67c88b&#45;&gt;09a15e9660c1ebc6f429d818825ce0c6 -->
<g id="edge4" class="edge"><title>ed0446436698678e06bafee91a67c88b-&gt;09a15e9660c1ebc6f429d818825ce0c6</title>
<path fill="none" stroke="black" d="M187.573,-589.788C166.483,-556.747 122.539,-490.569 111,-493.98"/>
</g>
<!-- 94e9961645ab2dbc481c20d108c03d06 -->
<g id="node4" class="node"><title>94e9961645ab2dbc481c20d108c03d06</title>
<a xlink:href="_Response.html" xlink:title="Response" target="_top">
<polygon fill="white" stroke="black" points="435,-625.98 355,-625.98 355,-589.98 435,-589.98 435,-625.98"/>
<text text-anchor="middle" x="395" y="-604.38" font-family="Times Roman,serif" font-size="14.00">Response</text>
</a>
</g>
<!-- 94e9961645ab2dbc481c20d108c03d06&#45;&gt;ed0446436698678e06bafee91a67c88b -->
<g id="edge6" class="edge"><title>94e9961645ab2dbc481c20d108c03d06-&gt;ed0446436698678e06bafee91a67c88b</title>
<path fill="none" stroke="black" d="M354.436,-603.4C333.935,-602.232 308.84,-602.57 287,-607.98"/>
</g>
<!-- 597eb3585261aa6c4c026502aebeca85 -->
<g id="node5" class="node"><title>597eb3585261aa6c4c026502aebeca85</title>
<a xlink:href="_Request.html" xlink:title="Request" target="_top">
<polygon fill="white" stroke="black" points="431,-511.98 359,-511.98 359,-475.98 431,-475.98 431,-511.98"/>
<text text-anchor="middle" x="395" y="-490.38" font-family="Times Roman,serif" font-size="14.00">Request</text>
</a>
</g>
<!-- 597eb3585261aa6c4c026502aebeca85&#45;&gt;ed0446436698678e06bafee91a67c88b -->
<g id="edge8" class="edge"><title>597eb3585261aa6c4c026502aebeca85-&gt;ed0446436698678e06bafee91a67c88b</title>
<path fill="none" stroke="black" d="M381.818,-512.046C358.956,-542.601 312.008,-601.786 287,-607.98"/>
<path fill="none" stroke="black" d="M287,-607.98C274.245,-611.139 260.128,-612.176 247.003,-612.159"/>
<polygon fill="none" stroke="black" points="246.808,-608.654 236.736,-611.941 246.659,-615.653 246.808,-608.654"/>
</g>
<!-- 7692f1c0b0c805ef4f53affff67441d4 -->
<g id="node6" class="node"><title>7692f1c0b0c805ef4f53affff67441d4</title>
<a xlink:href="_Lucene.html" xlink:title="Lucene" target="_top">
<polygon fill="white" stroke="black" points="232,-511.98 166,-511.98 166,-475.98 232,-475.98 232,-511.98"/>
<text text-anchor="middle" x="199" y="-490.38" font-family="Times Roman,serif" font-size="14.00">Lucene</text>
</a>
</g>
<!-- 7692f1c0b0c805ef4f53affff67441d4&#45;&gt;09a15e9660c1ebc6f429d818825ce0c6 -->
<g id="edge10" class="edge"><title>7692f1c0b0c805ef4f53affff67441d4-&gt;09a15e9660c1ebc6f429d818825ce0c6</title>
<path fill="none" stroke="black" d="M165.766,-489.58C149.016,-488.459 128.581,-488.783 111,-493.98"/>
</g>
<!-- f8783ee515ee12f917f5153013c2b464 -->
<g id="node7" class="node"><title>f8783ee515ee12f917f5153013c2b464</title>
<a xlink:href="_RequestPool.html" xlink:title="RequestPool" target="_top">
<polygon fill="white" stroke="black" points="249,-397.98 149,-397.98 149,-361.98 249,-361.98 249,-397.98"/>
<text text-anchor="middle" x="199" y="-376.38" font-family="Times Roman,serif" font-size="14.00">RequestPool</text>
</a>
</g>
<!-- f8783ee515ee12f917f5153013c2b464&#45;&gt;09a15e9660c1ebc6f429d818825ce0c6 -->
<g id="edge12" class="edge"><title>f8783ee515ee12f917f5153013c2b464-&gt;09a15e9660c1ebc6f429d818825ce0c6</title>
<path fill="none" stroke="black" d="M188.442,-398.427C170.432,-428.96 133.538,-487.318 111,-493.98"/>
</g>
<!-- c3e3fdeb7dfc4c609cfdc0448ae241b4 -->
<g id="node8" class="node"><title>c3e3fdeb7dfc4c609cfdc0448ae241b4</title>
<a xlink:href="_Database.html" xlink:title="Database" target="_top">
<polygon fill="white" stroke="black" points="240,-283.98 158,-283.98 158,-247.98 240,-247.98 240,-283.98"/>
<text text-anchor="middle" x="199" y="-262.38" font-family="Times Roman,serif" font-size="14.00">Database</text>
</a>
</g>
<!-- c3e3fdeb7dfc4c609cfdc0448ae241b4&#45;&gt;09a15e9660c1ebc6f429d818825ce0c6 -->
<g id="edge14" class="edge"><title>c3e3fdeb7dfc4c609cfdc0448ae241b4-&gt;09a15e9660c1ebc6f429d818825ce0c6</title>
<path fill="none" stroke="black" d="M186.307,-284.216C174.905,-301.309 158.403,-327.916 148,-352.98 123.163,-412.819 173.131,-475.616 111,-493.98"/>
</g>
<!-- d1457b72c3fb323a2671125aef3eab5d -->
<g id="node9" class="node"><title>d1457b72c3fb323a2671125aef3eab5d</title>
<polygon fill="white" stroke="black" points="226,-169.98 172,-169.98 172,-133.98 226,-133.98 226,-169.98"/>
<text text-anchor="middle" x="199" y="-148.38" font-family="Times Roman,serif" font-size="14.00" fill="gray">?</text>
</g>
<!-- d1457b72c3fb323a2671125aef3eab5d&#45;&gt;09a15e9660c1ebc6f429d818825ce0c6 -->
<g id="edge16" class="edge"><title>d1457b72c3fb323a2671125aef3eab5d-&gt;09a15e9660c1ebc6f429d818825ce0c6</title>
<path fill="none" stroke="black" d="M185.411,-170.29C173.563,-187.221 156.919,-213.536 148,-238.98 129.058,-293.016 165.912,-477.75 111,-493.98"/>
<path fill="none" stroke="black" d="M111,-493.98C102.407,-496.52 93.0025,-497.676 83.8675,-498.013"/>
<polygon fill="none" stroke="black" points="83.7035,-494.514 73.7256,-498.077 83.7473,-501.514 83.7035,-494.514"/>
</g>
<!-- 59852f5f5aeb9baac5559e683c18c585 -->
<g id="node10" class="node"><title>59852f5f5aeb9baac5559e683c18c585</title>
<polygon fill="white" stroke="black" points="466,-169.98 324,-169.98 324,-133.98 466,-133.98 466,-169.98"/>
<text text-anchor="middle" x="395" y="-148.38" font-family="Times Roman,serif" font-size="14.00" fill="gray">RuntimeException</text>
</g>
<!-- 59852f5f5aeb9baac5559e683c18c585&#45;&gt;d1457b72c3fb323a2671125aef3eab5d -->
<g id="edge18" class="edge"><title>59852f5f5aeb9baac5559e683c18c585-&gt;d1457b72c3fb323a2671125aef3eab5d</title>
<path fill="none" stroke="black" d="M323.962,-151.98C294.246,-151.98 260.943,-151.98 236.194,-151.98"/>
<polygon fill="none" stroke="black" points="236.146,-148.48 226.146,-151.98 236.146,-155.48 236.146,-148.48"/>
</g>
<!-- 9b19cac8f89d827ffa7ba76ed0a1455e -->
<g id="node11" class="node"><title>9b19cac8f89d827ffa7ba76ed0a1455e</title>
<a xlink:href="_Exception.html" xlink:title="Exception" target="_top">
<polygon fill="white" stroke="black" points="624,-169.98 540,-169.98 540,-133.98 624,-133.98 624,-169.98"/>
<text text-anchor="middle" x="582" y="-148.38" font-family="Times Roman,serif" font-size="14.00">Exception</text>
</a>
</g>
<!-- 9b19cac8f89d827ffa7ba76ed0a1455e&#45;&gt;59852f5f5aeb9baac5559e683c18c585 -->
<g id="edge20" class="edge"><title>9b19cac8f89d827ffa7ba76ed0a1455e-&gt;59852f5f5aeb9baac5559e683c18c585</title>
<path fill="none" stroke="black" d="M539.567,-151.98C520.868,-151.98 498.24,-151.98 476.492,-151.98"/>
<polygon fill="none" stroke="black" points="476.245,-148.48 466.245,-151.98 476.245,-155.48 476.245,-148.48"/>
</g>
<!-- 832795ffc3a4e057ba4b388b00339adb -->
<g id="node12" class="node"><title>832795ffc3a4e057ba4b388b00339adb</title>
<a xlink:href="_CurlException.html" xlink:title="CurlException" target="_top">
<polygon fill="white" stroke="black" points="827,-169.98 715,-169.98 715,-133.98 827,-133.98 827,-169.98"/>
<text text-anchor="middle" x="771" y="-148.38" font-family="Times Roman,serif" font-size="14.00">CurlException</text>
</a>
</g>
<!-- 832795ffc3a4e057ba4b388b00339adb&#45;&gt;9b19cac8f89d827ffa7ba76ed0a1455e -->
<g id="edge22" class="edge"><title>832795ffc3a4e057ba4b388b00339adb-&gt;9b19cac8f89d827ffa7ba76ed0a1455e</title>
<path fill="none" stroke="black" d="M714.425,-146.858C697.077,-146.65 678.07,-147.82 661,-151.98"/>
</g>
<!-- 6901d73678e38fb93d211f5d55f2034e -->
<g id="node13" class="node"><title>6901d73678e38fb93d211f5d55f2034e</title>
<a xlink:href="_CouchDbException.html" xlink:title="CouchDbException" target="_top">
<polygon fill="white" stroke="black" points="844,-55.98 698,-55.98 698,-19.98 844,-19.98 844,-55.98"/>
<text text-anchor="middle" x="771" y="-34.38" font-family="Times Roman,serif" font-size="14.00">CouchDbException</text>
</a>
</g>
<!-- 6901d73678e38fb93d211f5d55f2034e&#45;&gt;9b19cac8f89d827ffa7ba76ed0a1455e -->
<g id="edge24" class="edge"><title>6901d73678e38fb93d211f5d55f2034e-&gt;9b19cac8f89d827ffa7ba76ed0a1455e</title>
<path fill="none" stroke="black" d="M755.367,-56.188C728.137,-87.5891 673.692,-148.887 661,-151.98"/>
<path fill="none" stroke="black" d="M661,-151.98C652.48,-154.056 643.288,-155.095 634.291,-155.486"/>
<polygon fill="none" stroke="black" points="634.196,-151.987 624.263,-155.672 634.326,-158.986 634.196,-151.987"/>
</g>
</g>
<script xlink:href="js/SVGPan.js"/></svg>
